<svg xmlns="http://www.w3.org/2000/svg" width="256" height="256"><path fill-opacity=".016" d="M0 128.004v128.004l128.25-.254 128.25-.254.254-127.75L257.008 0H0v128.004m.485.496c0 70.4.119 99.053.265 63.672.146-35.38.146-92.98 0-128C.604 29.153.485 58.1.485 128.5" fill="#1976D2" fill-rule="evenodd"/><path fill-opacity=".159" d="M110.119 19.232L107.5 35.197c-1.375 8.379-2.5 15.587-2.5 16.018 0 .432-.819.785-1.82.785-1.351 0-2.492-1.865-4.435-7.25l-2.616-7.25-.064 6.75c-.036 3.712-.097 7.087-.136 7.5-.087.923-2.928 2.584-3.478 2.034-.22-.219-3.777-6.898-7.904-14.842-4.128-7.943-7.502-13.992-7.498-13.442.004.55 1.074 7.75 2.377 16 1.304 8.25 2.164 15.337 1.913 15.75-1.187 1.948-3.627.244-7.489-5.232-2.32-3.291-4.399-5.803-4.619-5.583-.22.22.635 3.613 1.9 7.54 1.982 6.154 2.097 7.267.834 8.055-1.113.695-4.289-1.899-13.215-10.792C52.287 44.799 47 39.885 47 40.317c0 .432 3.176 6.895 7.057 14.363 8.874 17.072 8.581 19.781-1.35 12.505-8.065-5.909-8.174-5.846-2.834 1.637 4.084 5.724 4.762 7.236 3.657 8.153-1.048.87-4.55-.475-15.43-5.925C30.36 67.173 23.69 64 23.279 64c-.411 0 4.52 5.287 10.959 11.75 8.485 8.517 11.47 12.13 10.845 13.129-.716 1.148-1.919 1.022-7.166-.75-9.242-3.121-9.844-2.65-3.027 2.369 6.65 4.895 7.842 7.537 3.36 7.446-1.513-.03-9.162-1.072-17-2.315C13.413 94.387 7 93.488 7 93.632c0 .144 6.767 3.723 15.037 7.953 8.271 4.23 14.872 8.191 14.669 8.803-.405 1.219-12.066 2.9-15.1 2.176-4.27-1.019.366 1.343 6.698 3.412 5.125 1.674 6.728 2.63 6.495 3.874-.246 1.316-3.346 2.127-15.304 4.005-8.247 1.296-15.67 2.603-16.495 2.906-.825.303 5.925 1.797 15 3.322 9.075 1.524 16.612 2.804 16.75 2.844.138.04.25.722.25 1.515 0 .905-2.611 2.284-7 3.697-3.85 1.24-7 2.616-7 3.058 0 .442 3.633.803 8.073.803 6.815 0 8.023.245 7.75 1.574-.255 1.241-22.65 13.766-28.095 15.713-.675.242-.991.7-.702 1.019.29.319 7.649-.563 16.354-1.959 11.329-1.818 16.134-2.233 16.907-1.46.594.594.885 1.233.646 1.42-.238.187-3.273 2.492-6.744 5.122-3.471 2.63-6.135 4.959-5.919 5.174.216.216 3.697-.731 7.736-2.105 4.04-1.374 7.715-2.498 8.169-2.498 2.492 0-.391 3.744-11.141 14.466-6.581 6.564-11.805 12.097-11.607 12.294.198.198 7.152-3.042 15.454-7.2S53.431 176 53.988 176c1.918 0 .998 2.068-3.902 8.775-2.703 3.699-4.746 6.894-4.541 7.1.205.207 3.529-1.965 7.387-4.825 3.859-2.86 7.469-4.92 8.024-4.577.592.366-2.32 7.301-7.066 16.825L45.816 215.5l6.395-6.275 6.394-6.276 1.668 3.498c1.953 4.095 8.423 9.082 13.919 10.729l3.869 1.159-.569 6.082-.569 6.083 3.054-5.75c2.981-5.611 3.157-5.75 7.289-5.756 2.329-.003 5.879-.462 7.889-1.02 3.227-.897 4.186-.692 8.199 1.755 4.044 2.466 4.614 3.267 5.174 7.271.346 2.475.984 5.625 1.417 7 .661 2.098.905 1.599 1.519-3.11l.731-5.61 14.153.471c12.907.429 14.313.659 15.978 2.61l1.827 2.139-.429-2.704c-.359-2.264.049-2.87 2.516-3.73 2.491-.868 3.432-.665 6.103 1.32 9.224 6.856 24.368 8.204 35.465 3.157 5.644-2.566 14.192-10.148 14.192-12.588 0-.419 2.363.14 5.25 1.244 6.23 2.382 13.543 2.008 20.045-1.026 2.313-1.079 6.841-2.207 10.064-2.507 10.412-.967 16.645-7.268 16.637-16.817-.007-8.498-7.07-14.777-16.679-14.827-3.236-.017-4.32-.457-4.792-1.944-.833-2.624-8.008-8.964-12.062-10.658-1.823-.762-5.786-1.676-8.806-2.03-4.457-.524-5.598-1.045-6.06-2.768-1.197-4.461-.832-4.915 3.403-4.238 5.358.857 5.053-.448-.652-2.794-2.554-1.051-6.786-4.042-9.405-6.646-2.895-2.88-6.853-5.54-10.102-6.788l-5.341-2.052 8.25-.052c4.537-.029 8.244-.39 8.237-.802-.007-.412-3.682-1.877-8.168-3.255-4.485-1.377-8.323-3.006-8.527-3.619-.242-.726 6.015-2.153 17.918-4.088 10.06-1.635 17.615-3.219 16.79-3.52-.825-.301-8.025-1.533-16-2.737-22.747-3.434-22.924-3.552-11.25-7.465 12.003-4.023 12.06-4.533.5-4.551-5.637-.008-10.245-.353-10.24-.765.006-.412 7.24-4.35 16.075-8.75 8.836-4.4 16.279-8.331 16.54-8.735.261-.404-.785-.493-2.325-.196-10.875 2.091-33.469 4.967-33.874 4.311-.272-.44 2.682-3.177 6.564-6.082s6.663-5.414 6.181-5.574c-.483-.161-4.321.801-8.53 2.137-4.209 1.337-7.886 2.052-8.172 1.589-.285-.462 5.23-6.775 12.256-14.029L198.5 62.733l-15.962 8.061c-8.779 4.434-16.318 7.842-16.753 7.573-1.017-.629.589-3.603 5.378-9.958 2.11-2.8 3.837-5.392 3.837-5.761 0-.369-3.161 1.629-7.024 4.439-3.863 2.809-7.624 4.878-8.357 4.597-.967-.371.838-4.801 6.557-16.098 4.34-8.572 7.641-15.586 7.336-15.586-.305 0-5.976 5.459-12.602 12.131-13.984 14.082-15.615 14.404-11.537 2.275 1.434-4.267 2.44-7.927 2.234-8.132-.206-.206-2.538 2.573-5.183 6.176-4.77 6.495-7.424 8.2-7.424 4.766 0-.981 1.103-8.503 2.45-16.716 1.348-8.213 2.289-15.095 2.091-15.292-.197-.198-3.662 6.085-7.7 13.961C126.767 56.869 125 57.962 125 45.873c0-9.432-.777-9.358-3.958.377-1.302 3.986-2.767 6.75-3.578 6.75-1.495 0-1.498-.013-4.901-20.5-1.279-7.7-2.379-13.671-2.444-13.268M85 69c-.793.49-1.217 1.116-.942 1.391.275.275 1.149.099 1.942-.391.793-.49 1.217-1.116.942-1.391-.275-.275-1.149-.099-1.942.391m-6.5 3c-2.931 1.941-2.944 1.987-.583 1.993 1.329.004 2.102-.307 1.718-.691-.384-.384.329-1.268 1.584-1.965 1.254-.696 1.831-1.279 1.281-1.295-.55-.016-2.35.865-4 1.958m8.669-.434c-2.933.789-6.265 2.088-7.405 2.887-1.522 1.066-2.631 1.184-4.169.444-2.028-.975-2.034-.958-.176.532 1.862 1.493 1.865 1.6.09 3.561-1.007 1.112-1.532 2.32-1.167 2.685.364.364-.074 1.477-.975 2.472-.9.995-1.762 2.943-1.914 4.33-.251 2.29-.004 2.472 2.711 1.994 2.254-.397 2.795-.213 2.2.749-1.87 3.026-1.195 16.412.767 15.199.552-.341.86.052.686.874-.41 1.931 4.33 6.324 8.873 8.222 4.828 2.017 9.14 1.866 13.746-.483 2.123-1.082 4.243-1.73 4.712-1.441.469.29.852-.144.852-.965 0-.82.891-1.774 1.98-2.12 1.089-.345 1.899-.938 1.802-1.317-.334-1.292 1.451-5.685 3.047-7.5 1.158-1.318 1.274-2.007.426-2.531-.641-.396-1.018-2.056-.837-3.689.204-1.848-.473-4.102-1.791-5.969-2.517-3.563-2.407-2.856-.755-4.846.966-1.164 1.023-1.654.191-1.654-.649 0-.912-.435-.583-.967.329-.532-.32-1.541-1.441-2.241-1.122-.7-2.039-1.793-2.039-2.428 0-1.373-9.495-6.536-10.384-5.646-.339.338-.616.09-.616-.551 0-1.457-1.15-1.399-7.831.399m45.331 64.393c-1.1.458-3.322 2.23-4.937 3.937-1.615 1.707-3.64 3.161-4.5 3.231-.86.07 1.268.494 4.728.944 7.158.929 12.393 3.739 14.911 8.002.998 1.689 2.59 2.936 3.764 2.949 6.7.072 13.774 6.485 15.142 13.728.492 2.603 1.097 3.25 3.035 3.25 3.925 0 8.75 2.49 11.761 6.069 2.436 2.894 2.75 3.977 2.353 8.111-.56 5.824-4.262 11.725-9.936 15.835l-4.14 2.999 3.409-.599c5.632-.988 13.25-3.586 15.91-5.425 4.033-2.787 6.401-3.113 10.959-1.504 5.161 1.82 10.201 1.954 11.841.314 1.954-1.954 1.381-6.282-1.147-8.657-1.5-1.409-4.563-2.562-8.483-3.193-8.163-1.315-15.035-5.43-18.007-10.784-1.445-2.602-4.54-5.706-8.108-8.128-3.516-2.388-7.053-5.917-9.053-9.035-3.397-5.293-7.866-9.274-11.73-10.447-1.519-.462-2.568-1.943-3.301-4.662-1.667-6.192-8.449-9.442-14.471-6.935m-22.467 13.822c-3.007 2.045-6.639 5.455-8.071 7.576-1.443 2.137-5.605 5.748-9.331 8.096-6.688 4.214-12.209 9.75-8.182 8.205.995-.382 3.757-1.185 6.138-1.784 3.647-.919 4.506-1.626 5.452-4.493 1.172-3.55 5.519-7.502 10.215-9.288 1.51-.574 2.746-1.728 2.746-2.565s1.627-3.324 3.616-5.525c1.989-2.202 3.452-3.989 3.25-3.972-.201.016-2.826 1.704-5.833 3.75m38.06 56.433c-4.148 2.656-2.666 3.47 2.436 1.338 2.043-.853 4.673-1.584 5.843-1.622 2.075-.069 2.079-.092.128-.93-3.152-1.354-4.756-1.123-8.407 1.214" fill="#1976D2" fill-rule="evenodd"/><path fill-opacity=".152" d="M115.813 53.683c.721.289 1.584.253 1.916-.079.332-.332-.258-.568-1.312-.525-1.165.048-1.402.285-.604.604M136 59c1.958 1.266 3.282 1.266 2.5 0-.34-.55-1.379-.993-2.309-.985-1.457.014-1.484.15-.191.985m5.165 2.33c1.28.974 1.496 2.064.933 4.718-.403 1.899-.393 4.127.023 4.952 5.862 11.642 6.306 13.338 6.286 24-.014 7.113-.596 12.435-1.804 16.5-.981 3.3-2.341 7.866-3.022 10.146l-1.238 4.146 4.844 4.174c2.665 2.295 4.638 4.509 4.384 4.92-.254.41.143 2.505.882 4.655 1.083 3.15 1.995 4.075 4.695 4.763 6.201 1.579 11.528 8.967 10.67 14.797-.267 1.814.413 2.348 4.231 3.324 6.388 1.634 11.286 4.924 13.528 9.088l1.917 3.559 6.901-.68c5.142-.506 6.717-.382 6.18.486-.466.754 1.177 2.035 4.649 3.625 6.315 2.89 13.734 8.946 13.876 11.325.06 1.016.413.691.9-.828.672-2.099.817-1.798.9 1.882.22 9.665-8.412 16.118-21.561 16.118-3.998 0-9.279-.682-11.736-1.516-4.335-1.472-4.575-1.443-8.174 1-2.039 1.384-3.983 2.556-4.319 2.605-.335.048-4.21.183-8.61.299-4.4.116-9.267.751-10.815 1.412-3.055 1.302-14.035 1.511-17.056.324-1.492-.586-.985-.997 2.5-2.027 2.404-.711 5.721-2.302 7.371-3.537 2.56-1.916 3.904-2.179 9.161-1.789 5.132.38 6.852.068 10.295-1.866 11.469-6.447 13.646-22.544 3.687-27.27-1.895-.899-4.742-1.635-6.326-1.635-2.574 0-3.028-.504-4.271-4.75-1.577-5.388-6.44-10.861-10.387-11.691a416.526 416.526 0 01-4.909-1.066c-1.238-.279-3.15-1.924-4.25-3.656-6.512-10.25-26.074-8.913-31.164 2.13-1.302 2.826-2.772 4.302-5.053 5.076-3.584 1.215-7.284 5.131-9.186 9.722-1.054 2.545-1.975 3.14-5.74 3.704-6.566.985-10.577 4.933-11.318 11.144l-.584 4.887-2.727-4.23c-3.342-5.183-3.496-9.815-.477-14.372C77.893 165.909 86.893 161 91.563 161c2.623 0 3.29-.453 3.682-2.5.353-1.85.049-2.5-1.174-2.5-3.773 0-13.995-3.195-19.962-6.239-4.093-2.089-9.529-6.317-15.119-11.761-7.123-6.936-9.121-9.565-10.859-14.288-1.172-3.183-2.131-6.67-2.131-7.75 0-1.085-.676-1.962-1.514-1.962-1.705 0-5.643-2.025-6.649-3.419-1.065-1.474-2.262 8.194-2.158 17.419.107 9.389 3.457 25.279 5.831 27.653.819.819 1.49 2.303 1.49 3.296 0 .993.658 2.352 1.461 3.019.804.667 1.763 2.184 2.131 3.372.369 1.188 1.549 3.51 2.622 5.16l1.951 3-2.5-2.913-2.501-2.914-11.332 11.261L23.5 190.195l14.852-7.708 14.853-7.708 2.725 2.86c1.499 1.574 4.137 4.044 5.861 5.489l3.136 2.628-2.196 1.872c-1.911 1.628-2.018 1.641-.821.098.756-.976 1.116-2.033.8-2.35-.317-.316-1.788 1.832-3.27 4.775-1.482 2.942-4.935 9.624-7.674 14.849l-4.98 9.5 6.015-5.878 6.015-5.878 1.503 2.878C63.095 210.94 72.911 218 77.528 218c1.046 0 1.439.61 1.127 1.75-.264.963-.739 3.55-1.056 5.75l-.575 4 2.695-5.25c2.519-4.908 2.937-5.25 6.412-5.25 2.044 0 5.908-.506 8.587-1.124 4.698-1.085 5.034-1.01 9.46 2.11 4.36 3.073 4.628 3.541 5.37 9.374l.781 6.14.734-5.315c.404-2.924.893-5.474 1.087-5.668.193-.193 2.601.085 5.351.619 2.749.534 9.178.835 14.285.668 6.926-.227 9.496.035 10.111 1.031.632 1.022.945.879 1.334-.609.85-3.251 5.228-3.611 9.514-.783 6.086 4.018 12.132 5.727 20.255 5.726 12.249 0 22.419-5.089 28.082-14.051 1.506-2.382 1.506-2.382 4.962-.542 5.452 2.903 14.33 2.551 20.84-.826 3.816-1.98 6.774-2.75 10.56-2.75 3.809 0 6.172-.621 8.566-2.25 5.64-3.838 7.417-7.102 7.455-13.694.029-4.929-.373-6.327-2.465-8.57-3.536-3.792-9.266-6.486-13.793-6.486-3.367 0-4.187-.484-6.289-3.716-3.696-5.679-10.516-9.402-18.38-10.033-6.086-.489-6.612-.719-7.147-3.139a112.83 112.83 0 00-1.093-4.494c-.461-1.679-.101-1.813 3.343-1.244l3.859.637-4-2.133c-2.2-1.174-6.251-4.246-9.003-6.829-4.213-3.954-9.507-6.773-16.088-8.567-.77-.21-.816-2.313-.156-7.14 1.261-9.224-.508-24.638-3.76-32.767-1.371-3.428-2.493-6.588-2.493-7.023 0-2.035-7.905-13.449-13.393-19.336-5.709-6.125-19.471-16.255-21.985-16.184-.617.017-.373.601.543 1.298m49.335 6.327c-2.747 1.695-3.217 2.249-1.5 1.768 2.466-.691 8.102-4.514 6.385-4.331-.487.052-2.685 1.205-4.885 2.563M186 88c-.825.533-1.05.969-.5.969s1.675-.436 2.5-.969c.825-.533 1.05-.969.5-.969s-1.675.436-2.5.969m14.5 8c-4.95.982-7.932 1.834-6.628 1.893 1.968.089 2.165.357 1.156 1.573-2.789 3.361-.004 2.994 8.405-1.108 9.911-4.835 9.84-4.892-2.933-2.358M38.079 107.583c.048 1.165.285 1.402.604.605.289-.722.253-1.585-.079-1.917-.332-.332-.568.258-.525 1.312m151.455 6.967c-1.83 1.383-1.726 1.44 1.5.817 1.906-.368 4.366-1.022 5.466-1.455 1.568-.616 1.245-.792-1.5-.817-1.925-.017-4.385.637-5.466 1.455m-1.745 9.276c.943.615 1.027 1.527.314 3.404-.537 1.41-.704 2.836-.372 3.167.331.332-.448.603-1.731.603-1.283 0-2.084.249-1.78.554.305.304 6.24-.371 13.189-1.5 6.949-1.13 14.275-2.054 16.279-2.054 5.772 0 3.339-.937-6.297-2.424-12.861-1.985-21.091-2.719-19.602-1.75M11.25 125.723c-1.788.222-3.25.767-3.25 1.212 0 .939 9.966 2.432 10.783 1.615.303-.303-.398-.55-1.557-.55-2.702 0-3.801-1.705-1.488-2.308 2.114-.552.096-.538-4.488.031m175.703 12.72c.905 1.09.765 1.491-.65 1.857-.992.258 1.122.485 4.697.505 3.575.02 5.825-.188 5-.463-9.279-3.094-10.2-3.287-9.047-1.899M26 140.068c-2.175.637-2.013.746 1.25.832 3.808.102 4.765-.329 2.5-1.125-.687-.242-2.375-.11-3.75.293m-5.729 14.17c-5.626 2.825-10.126 5.231-10 5.346.126.114 5.497-.722 11.936-1.858 11.526-2.033 11.675-2.094 9.597-3.896-1.16-1.006-2.577-1.83-3.148-1.83-.571 0-.165-.661.903-1.468 3.129-2.367 1.542-1.734-9.288 3.706m14.461 10.298c-2.053 1.395-3.732 2.718-3.732 2.939 0 .222 2.025-.286 4.5-1.13 2.475-.843 4.5-2.166 4.5-2.939 0-1.983-1.004-1.767-5.268 1.13m15.945 20.614c-2.103 2.667-3.517 4.85-3.144 4.85.546 0 6-3.913 9.692-6.953.399-.328-.051-1.081-1-1.672-1.441-.898-2.355-.276-5.548 3.775M104 202.67c0 .135 1.912 1.339 4.25 2.676 4.909 2.807 10.493 4.008 14.254 3.064l2.623-.659-3.42-2.433c-2.742-1.951-4.834-2.478-10.563-2.663-3.929-.126-7.144-.119-7.144.015" fill="#1976D2" fill-rule="evenodd"/><path fill-opacity=".396" d="M154.174 134.716c-1.583.301-2.141.927-1.746 1.956.319.833.842 2.554 1.161 3.825.408 1.627 1.54 2.492 3.82 2.92 5.516 1.035 10.591 7.752 10.591 14.017 0 2.631.428 3.566 1.632 3.566 1.313 0 1.527-.731 1.098-3.75-.293-2.062-.854-4.546-1.246-5.519-.677-1.68-.543-1.684 2.652-.082 1.85.929 4.039 1.999 4.864 2.378.825.38 1.773 2.367 2.106 4.416l.607 3.726-3.607-.59-3.606-.59 4 2.121c4.971 2.635 8.281 5.603 10.058 9.018 1.3 2.499 1.6 2.584 6.122 1.739 8.987-1.679 20.485 1.976 25.695 8.166 3.927 4.667 4.557 9.257 2.124 15.467-.734 1.876-.673 1.897.982.342.97-.912 2.544-3.962 3.497-6.777 1.476-4.361 1.92-4.893 3-3.592.822.991 2.996 1.527 6.19 1.527 8.02 0 12.255 5.787 8.042 10.989-1.816 2.243-6.675 2.95-10.949 1.594-1.139-.362-4.312.467-7.663 2.001-3.145 1.44-6.627 2.38-7.738 2.09-1.111-.291-3.897.149-6.19.978-6.411 2.317-17.744 2.033-22.736-.569l-4.105-2.14-3.398 2.983c-4.913 4.314-10.436 5.755-16.173 4.22-4.296-1.148-4.725-1.078-7.164 1.18-7.145 6.615-22.366 6.229-27.82-.705-1.862-2.367-2.718-2.621-8.83-2.621-5.438 0-7.618-.498-11.088-2.531-2.375-1.393-4.768-3.371-5.317-4.396-.954-1.783-.794-1.804 3.672-.459 2.571.773 6.133 1.131 7.925.794 2.616-.49 4.102-.008 7.56 2.451 7.914 5.629 18.325 5.988 25.304.871 2.398-1.758 4.41-2.208 10.031-2.244 8.675-.056 12.652-2.109 17.219-8.888 3.758-5.578 4.128-9.646 1.3-14.284-2.421-3.971-5.047-5.405-11.341-6.195l-4.932-.619-.205-4.265c-.341-7.111-6.724-13.141-14.072-13.295-2.338-.048-3.67-.987-6.034-4.251-7.239-9.993-23.44-8.3-28.895 3.018-1.202 2.495-2.908 4.412-4.218 4.74-3.431.862-8.139 5.32-9.452 8.951-1.017 2.812-1.927 3.487-6.17 4.574-2.737.702-6.384 2.533-8.104 4.07-2.608 2.33-3.127 3.526-3.127 7.204 0 7.655 5.165 12.637 14.75 14.224 3.496.579 3.75.856 3.75 4.1 0 3.912-1.196 4.672-9.196 5.847-13.069 1.919-21.724-7.476-15.815-17.167 1.09-1.787 2.423-3.25 2.963-3.25.539 0 .055-1.569-1.077-3.487-1.832-3.105-2.293-3.361-4.216-2.344-7.318 3.873-11.689 10.108-11.637 16.601.094 11.646 14.504 21.311 29.664 19.895 3.467-.324 7.195-1.066 8.286-1.65 1.614-.864 2.763-.495 6.191 1.988 6.365 4.611 13.679 6.443 25.837 6.472 5.857.014 12.521-.563 15.071-1.305 4.497-1.308 4.681-1.268 11.5 2.5 6.737 3.724 7.207 3.83 16.944 3.83 9.257 0 10.511-.244 16.558-3.218 4.732-2.327 7.442-4.472 9.797-7.75 1.79-2.493 3.396-4.532 3.57-4.532.174 0 1.931.675 3.906 1.5 5.774 2.413 15.341 1.94 20.506-1.012 2.891-1.653 5.913-2.495 9-2.51 9.506-.045 16.2-5.406 17.679-14.159 1.381-8.177-6.17-15.769-15.717-15.803-4.371-.015-4.828-.269-6.803-3.783C227.435 172.87 217.892 168 209 168c-3.667 0-3.687-.023-4.963-5.75-.74-3.321-2.513-7.309-4.196-9.44-3.469-4.393-13.735-9.81-18.592-9.81-2.456 0-4.559-.965-7.399-3.396-5.344-4.575-12.28-6.298-19.676-4.888m-34.097 19.873c-4.791 4.031-4.104 6.187 4.468 14.018 4.15 3.791 8.604 7.347 9.898 7.901 1.294.555 4.847 3.367 7.895 6.25 5.85 5.533 8.614 6.351 14.234 4.215 2.607-.991 2.681-1.229 2.116-6.711-.335-3.243-1.792-8.039-3.392-11.168-2.705-5.29-3.205-5.688-14.17-11.289-12.946-6.611-16.389-7.138-21.049-3.216" fill="#1976D2" fill-rule="evenodd"/></svg>